<mxfile host="app.diagrams.net" modified="2023-02-07T04:52:16.173Z" agent="5.0 (X11; Ubuntu)" etag="GOZb5oULA8TEIlBJaiL2" version="20.8.13" type="github">
  <diagram name="Page-1" id="ewsiZU4qj8d6lI3tV3Do">
    <mxGraphModel dx="1360" dy="795" grid="1" gridSize="10" guides="1" tooltips="1" connect="1" arrows="1" fold="1" page="1" pageScale="1" pageWidth="850" pageHeight="1100" math="0" shadow="0">
      <root>
        <mxCell id="0" />
        <mxCell id="1" parent="0" />
        <mxCell id="svDQTDon309rbO0k9ohA-1" value="&lt;font style=&quot;font-size: 15px;&quot;&gt;RRTS Application&lt;/font&gt;" style="rounded=0;whiteSpace=wrap;html=1;" vertex="1" parent="1">
          <mxGeometry x="365" y="100" width="120" height="60" as="geometry" />
        </mxCell>
        <mxCell id="svDQTDon309rbO0k9ohA-2" value="&lt;div&gt;Requirements &lt;br&gt;&lt;/div&gt;&lt;div&gt;Analysis&lt;br&gt;&lt;/div&gt;" style="whiteSpace=wrap;html=1;aspect=fixed;fontSize=15;" vertex="1" parent="1">
          <mxGeometry x="50" y="190" width="100" height="100" as="geometry" />
        </mxCell>
        <mxCell id="svDQTDon309rbO0k9ohA-3" value="Design" style="whiteSpace=wrap;html=1;aspect=fixed;fontSize=15;" vertex="1" parent="1">
          <mxGeometry x="260" y="190" width="80" height="80" as="geometry" />
        </mxCell>
        <mxCell id="svDQTDon309rbO0k9ohA-4" value="Coding" style="whiteSpace=wrap;html=1;aspect=fixed;fontSize=15;" vertex="1" parent="1">
          <mxGeometry x="425" y="190" width="80" height="80" as="geometry" />
        </mxCell>
        <mxCell id="svDQTDon309rbO0k9ohA-5" value="Testing" style="whiteSpace=wrap;html=1;aspect=fixed;fontSize=15;" vertex="1" parent="1">
          <mxGeometry x="580" y="190" width="80" height="80" as="geometry" />
        </mxCell>
        <mxCell id="svDQTDon309rbO0k9ohA-6" value="Documentation" style="whiteSpace=wrap;html=1;aspect=fixed;fontSize=15;" vertex="1" parent="1">
          <mxGeometry x="700" y="180" width="100" height="100" as="geometry" />
        </mxCell>
        <mxCell id="svDQTDon309rbO0k9ohA-7" value="Database" style="whiteSpace=wrap;html=1;aspect=fixed;fontSize=15;" vertex="1" parent="1">
          <mxGeometry x="150" y="350" width="80" height="80" as="geometry" />
        </mxCell>
        <mxCell id="svDQTDon309rbO0k9ohA-8" value="Database" style="whiteSpace=wrap;html=1;aspect=fixed;fontSize=15;" vertex="1" parent="1">
          <mxGeometry x="380" y="350" width="80" height="80" as="geometry" />
        </mxCell>
        <mxCell id="svDQTDon309rbO0k9ohA-9" value="GUI" style="whiteSpace=wrap;html=1;aspect=fixed;fontSize=15;" vertex="1" parent="1">
          <mxGeometry x="260" y="350" width="80" height="80" as="geometry" />
        </mxCell>
        <mxCell id="svDQTDon309rbO0k9ohA-10" value="GUI" style="whiteSpace=wrap;html=1;aspect=fixed;fontSize=15;" vertex="1" parent="1">
          <mxGeometry x="490" y="350" width="80" height="80" as="geometry" />
        </mxCell>
        <mxCell id="svDQTDon309rbO0k9ohA-11" value="" style="endArrow=classic;html=1;rounded=0;fontSize=15;entryX=0.175;entryY=1.025;entryDx=0;entryDy=0;entryPerimeter=0;exitX=0.175;exitY=1.025;exitDx=0;exitDy=0;exitPerimeter=0;" edge="1" parent="1" source="svDQTDon309rbO0k9ohA-3">
          <mxGeometry width="50" height="50" relative="1" as="geometry">
            <mxPoint x="250" y="300" as="sourcePoint" />
            <mxPoint x="200" y="350" as="targetPoint" />
          </mxGeometry>
        </mxCell>
        <mxCell id="svDQTDon309rbO0k9ohA-12" value="" style="endArrow=classic;html=1;rounded=0;fontSize=15;exitX=0.35;exitY=1.063;exitDx=0;exitDy=0;exitPerimeter=0;" edge="1" parent="1" source="svDQTDon309rbO0k9ohA-3">
          <mxGeometry width="50" height="50" relative="1" as="geometry">
            <mxPoint x="350" y="300" as="sourcePoint" />
            <mxPoint x="300" y="350" as="targetPoint" />
          </mxGeometry>
        </mxCell>
        <mxCell id="svDQTDon309rbO0k9ohA-13" value="" style="endArrow=classic;html=1;rounded=0;fontSize=15;exitX=0.25;exitY=1;exitDx=0;exitDy=0;entryX=0.25;entryY=0;entryDx=0;entryDy=0;" edge="1" parent="1" source="svDQTDon309rbO0k9ohA-4" target="svDQTDon309rbO0k9ohA-8">
          <mxGeometry width="50" height="50" relative="1" as="geometry">
            <mxPoint x="450" y="300" as="sourcePoint" />
            <mxPoint x="400" y="350" as="targetPoint" />
          </mxGeometry>
        </mxCell>
        <mxCell id="svDQTDon309rbO0k9ohA-14" value="" style="endArrow=classic;html=1;rounded=0;fontSize=15;exitX=0.5;exitY=1;exitDx=0;exitDy=0;entryX=0.5;entryY=0;entryDx=0;entryDy=0;" edge="1" parent="1" source="svDQTDon309rbO0k9ohA-4" target="svDQTDon309rbO0k9ohA-10">
          <mxGeometry width="50" height="50" relative="1" as="geometry">
            <mxPoint x="540" y="300" as="sourcePoint" />
            <mxPoint x="490" y="350" as="targetPoint" />
          </mxGeometry>
        </mxCell>
      </root>
    </mxGraphModel>
  </diagram>
</mxfile>
